<svg width="41" height="41" viewBox="0 0 41 41" fill="none" xmlns="http://www.w3.org/2000/svg">
<circle cx="20.5" cy="20.5" r="20.5" fill="#0065B5"/>
<g clip-path="url(#clip0)">
<path d="M28.4562 14.8693C27.8856 15.1642 27.2727 15.3635 26.6283 15.4536C27.2932 14.9895 27.7906 14.259 28.0277 13.3984C27.4031 13.8313 26.7194 14.136 26.0064 14.2992C25.527 13.702 24.892 13.3062 24.1999 13.1731C23.5079 13.0401 22.7976 13.1774 22.1793 13.5636C21.5609 13.9498 21.0692 14.5634 20.7804 15.3091C20.4916 16.0548 20.4219 16.8908 20.5821 17.6874C19.3164 17.6133 18.0782 17.2295 16.9478 16.5609C15.8174 15.8923 14.8202 14.9539 14.0208 13.8066C13.7474 14.3566 13.5903 14.9944 13.5903 15.6736C13.59 16.2851 13.719 16.8872 13.966 17.4265C14.213 17.9658 14.5703 18.4257 15.0061 18.7653C14.5007 18.7465 14.0063 18.5872 13.5643 18.3005V18.3483C13.5643 19.2059 13.8185 20.0371 14.284 20.7009C14.7494 21.3647 15.3974 21.8202 16.1179 21.99C15.649 22.1381 15.1574 22.1599 14.6802 22.0538C14.8835 22.7917 15.2795 23.437 15.8127 23.8993C16.346 24.3616 16.9898 24.6178 17.6541 24.632C16.5264 25.6648 15.1339 26.225 13.7003 26.2225C13.4464 26.2226 13.1926 26.2053 12.9404 26.1707C14.3956 27.2622 16.0895 27.8415 17.8194 27.8393C23.6756 27.8393 26.877 22.1806 26.877 17.2729C26.877 17.1134 26.8736 16.9524 26.8674 16.7929C27.4902 16.2676 28.0277 15.617 28.4548 14.8716L28.4562 14.8693Z" fill="white"/>
</g>
<defs>
<clipPath id="clip0">
<rect width="16.4" height="19.1333" fill="white" transform="translate(12.2998 10.9333)"/>
</clipPath>
</defs>
</svg>
