<svg width="26" height="26" viewBox="0 0 26 26" fill="none" xmlns="http://www.w3.org/2000/svg">
<g clip-path="url(#clip0)">
<path d="M25.7129 11.7578C23.8481 9.04151 19.9929 13.039 12.957 13.8515C10.3519 14.152 8.00472 16.3273 4.97861 16.12C3.73783 16.0348 2.00522 12.4648 0.708105 13.034C0.040772 13.3272 -0.26545 14.3058 0.420661 15.041L8.03866 24.1309C8.03866 24.1309 8.42577 24.5772 9.73011 24.2681C10.0515 24.3627 14.8832 22.4265 17.6767 18.5503C18.3455 17.6222 19.1428 16.8495 19.9683 16.2038C22.6485 14.222 25.5619 13.5316 25.5619 13.5316C25.9346 13.2239 26.022 12.8967 26.0018 12.6129C26.0263 12.1391 25.7129 11.7578 25.7129 11.7578Z" fill="#122F00"/>
<path d="M8.28803 7.42012C5.55587 11.2118 0.771144 13.008 0.771144 13.008C-0.121523 13.7641 0.632477 14.6553 0.632477 14.6553L8.17103 23.5813C8.17103 23.5813 8.54803 24.0269 9.8177 23.7178C9.8177 23.7178 14.6024 21.9252 17.3339 18.1336C20.1498 14.2263 25.2278 12.9928 25.2278 12.9928C26.1197 12.2366 25.3664 11.344 25.3664 11.344L17.8279 2.41946C17.8279 2.41946 17.4509 1.97312 16.1812 2.28079C16.1812 2.28079 11.104 3.51146 8.28803 7.42012Z" fill="#91DF5E"/>
<path d="M15.8887 14.0833C18.0825 14.0833 19.8609 12.3049 19.8609 10.1111C19.8609 7.91732 18.0825 6.1389 15.8887 6.1389C13.6949 6.1389 11.9165 7.91732 11.9165 10.1111C11.9165 12.3049 13.6949 14.0833 15.8887 14.0833Z" fill="#4BC300"/>
<path d="M9.29711 23.0599C8.66084 23.0599 8.42756 22.823 8.39578 22.7869L1.60039 14.8547C1.58739 14.8395 1.24289 14.4452 1.28478 13.944C1.31006 13.6399 1.4675 13.3691 1.75206 13.1387L1.79756 13.1113C1.84161 13.0939 6.24861 11.2826 8.71861 8.00877L8.86306 8.1171L8.71861 8.00877C11.3316 4.54499 15.839 3.05866 15.8838 3.04421C17.1441 2.75099 17.5564 3.16988 17.6005 3.21899L24.3063 11.1952C24.3186 11.2082 24.6624 11.604 24.6205 12.1059C24.5952 12.4093 24.4378 12.6801 24.1532 12.9105L24.0817 12.9459C24.0377 12.9567 19.6552 14.0458 17.1166 17.4099C14.5896 20.761 10.1782 22.9292 10.1342 22.9501C9.79906 23.0295 9.52317 23.0599 9.29711 23.0599ZM8.66806 22.5493C8.66878 22.5493 8.9945 22.8497 10.015 22.6128C10.0208 22.6049 14.3548 20.4736 16.8299 17.1933C19.3122 13.9035 23.4924 12.7285 23.9561 12.6064C24.1417 12.4468 24.2442 12.2699 24.2608 12.0799C24.2912 11.7333 24.0355 11.435 24.0333 11.4321L17.3275 3.45516C17.3261 3.45516 17.0025 3.15543 15.9813 3.39232C15.9517 3.40243 11.5504 4.85555 9.0075 8.22616C6.5765 11.448 2.33489 13.2781 1.96006 13.4355C1.7665 13.598 1.66106 13.7793 1.64445 13.9736C1.61556 14.3174 1.86978 14.6142 1.87195 14.6171L8.66806 22.5493Z" fill="#122F00"/>
<path d="M15.3661 16.0088L15.3618 20.2988L15.7208 20.7249C16.4206 20.0865 17.093 19.3686 17.6744 18.5611C18.2586 17.7566 18.9452 17.0316 19.7168 16.4046L19.368 15.9893L15.3661 16.0088Z" fill="#FFAC33"/>
<path d="M19.3541 15.9741L10.322 5.27583C9.58821 5.87961 8.88332 6.58378 8.28387 7.4165C7.69815 8.22972 7.01637 8.94544 6.30859 9.57667L7.36448 10.8268L7.36376 10.8276L15.3624 20.2988C16.095 19.6493 16.7549 18.9221 17.3304 18.1299C17.9299 17.2979 18.634 16.5945 19.3671 15.9907L19.3534 15.9741H19.3541Z" fill="#FFDC91"/>
<path d="M10.457 16.2897C9.33246 14.958 6.95202 17.1189 6.27313 16.315C5.94452 15.9257 6.15613 15.4209 6.58802 15.0569C7.31385 14.443 7.83746 14.8005 8.16608 14.5225C8.39935 14.326 8.38707 14.0855 8.24841 13.9201C7.9263 13.5395 7.10296 13.7381 6.46308 14.1079L6.1518 13.7396C6.05724 13.6343 5.92542 13.57 5.78425 13.5602C5.64307 13.5504 5.50365 13.596 5.39549 13.6873C5.28734 13.7785 5.21896 13.9083 5.20483 14.0491C5.1907 14.1899 5.23193 14.3307 5.3198 14.4416L5.64191 14.8236C5.15296 15.4722 4.98685 16.3331 5.56535 17.017C6.6458 18.2954 9.05585 16.1706 9.81419 17.069C10.0771 17.381 10.0034 17.9761 9.45019 18.4427C8.62108 19.144 7.86996 18.8154 7.53269 19.0999C7.36802 19.2379 7.33841 19.5008 7.51391 19.7095C7.79341 20.0395 8.68391 19.9688 9.53974 19.4358C9.54119 19.4372 9.54119 19.4386 9.54119 19.4401L9.89291 19.8561C9.93832 19.9132 9.99473 19.9606 10.0588 19.9955C10.1229 20.0305 10.1933 20.0522 10.2659 20.0594C10.3385 20.0666 10.4119 20.0591 10.4816 20.0375C10.5512 20.0158 10.6159 19.9804 10.6716 19.9333C10.7274 19.8862 10.7731 19.8284 10.8061 19.7633C10.8391 19.6982 10.8587 19.6272 10.8637 19.5544C10.8687 19.4816 10.8591 19.4085 10.8354 19.3395C10.8117 19.2705 10.7744 19.207 10.7256 19.1526L10.3739 18.7366C10.3703 18.7323 10.3645 18.7294 10.3602 18.7251C10.9372 18.0187 11.1322 17.0878 10.457 16.2897Z" fill="#122F00"/>
<path d="M23.4405 23.5358C23.447 23.53 23.4542 23.5257 23.4607 23.5206C23.5099 23.4715 23.5481 23.4152 23.5915 23.361C23.6218 23.3234 23.6557 23.2873 23.6839 23.2491C23.7092 23.2129 23.7301 23.1761 23.7532 23.1393C24.7788 21.5598 24.1071 18.8818 22.077 16.8509C20.0461 14.82 17.3674 14.1483 15.7886 15.1746C15.751 15.197 15.7142 15.2179 15.6781 15.2439C15.6398 15.2721 15.603 15.3061 15.5669 15.3357C15.5134 15.3797 15.4571 15.4173 15.4072 15.4671C15.4007 15.4736 15.3964 15.4808 15.3914 15.4873C15.3834 15.4953 15.374 15.5003 15.3654 15.509L15.3697 15.5126C14.6475 16.2796 14.6388 17.4662 15.3654 18.1935C16.0934 18.9215 17.2792 18.9114 18.047 18.1892L18.0549 18.1978C18.0397 18.2123 18.0231 18.2217 18.0087 18.2361C17.2439 19.0009 17.2258 20.2208 17.9661 20.9625C18.7071 21.7028 19.9284 21.6847 20.6925 20.9199C20.7069 20.9054 20.7163 20.8888 20.7307 20.8737L20.7387 20.8823C20.0165 21.6493 20.0071 22.8359 20.7351 23.5639C21.4624 24.2905 22.6482 24.2818 23.4152 23.5596L23.4196 23.5639C23.4268 23.5538 23.4326 23.5444 23.4405 23.5358Z" fill="#E1E8ED"/>
<path d="M15.3665 18.2224C16.0209 18.876 17.0428 18.9295 17.8004 18.4109C18.1175 17.8692 18.2085 17.3543 18.2085 17.1932C16.6145 18.382 15.1918 17.1997 14.8733 16.4927C14.7411 17.1037 14.9014 17.7566 15.3665 18.2224ZM20.638 20.9957C20.8533 20.6931 21.0201 20.4006 21.0981 20.2027C20.0834 21.133 18.1435 20.4519 17.5556 18.9764C17.297 19.6625 17.4292 20.4526 17.968 20.9914C18.6917 21.7151 19.8703 21.7093 20.638 20.9957ZM23.4215 23.5921L23.4424 23.5661C23.4497 23.5603 23.4569 23.556 23.4627 23.5502C23.5125 23.5011 23.5508 23.4448 23.5934 23.3913C23.6244 23.3531 23.6577 23.3177 23.6858 23.2787C23.7118 23.2433 23.7328 23.2057 23.7559 23.1689C23.8028 23.0967 23.8281 23.0115 23.8678 22.9349C22.042 23.7517 20.6792 22.3658 20.2972 21.6746C20.0841 22.3369 20.2228 23.0786 20.737 23.5936C21.4635 24.3208 22.6494 24.3122 23.4172 23.5892L23.4215 23.5921Z" fill="#CCD6DD"/>
<path d="M10.0791 9.02636L10.0993 9.01048C10.1491 8.96136 10.1874 8.90503 10.23 8.85159C10.2604 8.81403 10.2936 8.77864 10.3217 8.73964C10.3477 8.70353 10.3687 8.6667 10.3918 8.62986C11.4174 7.05036 10.745 4.37164 8.7148 2.34147C6.68391 0.310586 4.00591 -0.361803 2.42641 0.663752C2.38958 0.686864 2.35203 0.707808 2.31591 0.733808C2.27691 0.761975 2.24153 0.795197 2.20397 0.82553C2.15053 0.868864 2.09419 0.906419 2.04508 0.956252C2.03858 0.962752 2.03425 0.970697 2.02919 0.976475C2.02125 0.983697 2.01114 0.990197 2.00319 0.998141L2.0068 1.00175C1.28458 1.76875 1.27591 2.95536 2.00319 3.68264C2.73047 4.40992 3.91708 4.40125 4.68408 3.67903L4.69203 3.68697C4.67686 3.7007 4.66025 3.71081 4.6458 3.72525C3.88097 4.49009 3.86291 5.70992 4.60391 6.45164C5.34491 7.19336 6.56547 7.17459 7.3303 6.40975C7.34475 6.39531 7.35414 6.3787 7.36858 6.36353L7.37652 6.37147C6.6543 7.13847 6.64491 8.32509 7.37291 9.05236C8.10019 9.77964 9.28608 9.77098 10.0531 9.04803L10.0567 9.05236C10.0646 9.04442 10.0711 9.03503 10.0791 9.02636Z" fill="#E1E8ED"/>
<path d="M2.00277 3.68331C2.6571 4.33765 3.67905 4.39109 4.43666 3.87109C4.75372 3.32943 4.84399 2.8152 4.84399 2.65415C3.25077 3.8422 1.82727 2.6592 1.50949 1.95215C1.37733 2.56387 1.53766 3.21748 2.00277 3.68331ZM7.27572 6.4552C7.49022 6.15259 7.65705 5.86154 7.73433 5.66365C6.71888 6.59387 4.77899 5.91209 4.19183 4.43659C3.93327 5.1227 4.06544 5.91281 4.60349 6.45159C5.3286 7.17598 6.50799 7.16948 7.27572 6.4552ZM10.057 9.05304C10.0649 9.04509 10.0714 9.0357 10.0787 9.02704L10.0989 9.01115C10.1487 8.96204 10.187 8.9057 10.2296 8.85226C10.2599 8.8147 10.2932 8.77931 10.3213 8.74031C10.3473 8.7042 10.3683 8.66737 10.3914 8.63054C10.4383 8.55831 10.4636 8.47237 10.5033 8.39581C8.67755 9.21265 7.31472 7.82743 6.93266 7.13626C6.7196 7.79854 6.85827 8.54026 7.37249 9.05448C8.09977 9.78176 9.28566 9.77309 10.0527 9.05015L10.057 9.05304Z" fill="#CCD6DD"/>
</g>
<defs>
<clipPath id="clip0">
<rect width="26" height="26" fill="white"/>
</clipPath>
</defs>
</svg>
