<svg width="418" height="440" viewBox="0 0 418 440" fill="none" xmlns="http://www.w3.org/2000/svg">
<g clip-path="url(#clip0)">
<path d="M78.5435 70.0582L85.3099 67.4871L87.0874 71.2954L87.9087 80.3967L86.3948 81.4771L78.5435 70.0582Z" fill="black"/>
<path d="M111.419 87.9831L103.691 92.3829L111.812 104.176L113.706 102.818L114.883 93.4571L111.419 87.9831Z" fill="black"/>
<g opacity="0.05">
<path opacity="0.05" d="M127.631 33.0435C126.075 35.361 124.622 37.8717 124.174 39.634L125.4 38.8012C125.247 37.4915 126.258 35.3188 127.631 33.0435Z" fill="black"/>
<path opacity="0.05" d="M134.6 64.5841L135.451 46.9428C116.452 58.8143 88.6504 69.6477 88.6504 69.6477L87.3081 71.742C87.3081 71.742 115.14 60.9086 134.109 49.0371L133.313 65.6523L134.6 64.5841Z" fill="black"/>
</g>
<g opacity="0.5">
<path opacity="0.5" d="M84.8626 82.334L86.4193 81.2175L85.5797 71.8446L83.747 67.9277L76.7783 70.5772L84.8626 82.334Z" fill="url(#paint0_linear)"/>
<path opacity="0.5" d="M190.968 1.13462C186.733 -0.869115 183.565 0.0723972 181.346 1.73815C179.366 3.20688 177.818 5.16951 176.866 7.42343L176.253 9.0228L173.384 11.0748L172.452 9.11333C172.452 9.11333 162.297 -8.65469 132.338 26.0424L132.204 25.9338C132.204 25.9338 129.653 29.0058 127.331 32.452L127 32.9469L126.853 33.1702L126.644 33.49L126.491 33.7315L126.258 34.1117L126.055 34.4376L125.841 34.7937L125.688 35.0532L125.529 35.3248L125.376 35.5964L125.216 35.8861L124.983 36.3206L124.854 36.562L124.713 36.8457L124.61 37.063L124.475 37.3466L124.388 37.5337C124.315 37.7027 124.245 37.8677 124.18 38.0286L124.106 38.2157L124.009 38.4813L123.947 38.6623C123.902 38.7991 123.862 38.9339 123.824 39.0667C123.824 39.1391 123.782 39.2055 123.77 39.2719C123.65 39.6957 123.604 40.1366 123.635 40.5755L83.7471 67.9096L85.7942 72.2912C85.7942 72.2912 114.46 61.1379 133.999 48.9043L133.178 66.0145L133.129 67.0706C133.129 67.0706 115.281 81.6218 110.635 89.0332L102.668 93.5658L111.034 105.709L112.983 104.315L114.208 94.6582L146.955 68.8812C146.955 68.8812 153.164 57.7098 153.275 48.3611L154.617 53.461C154.617 53.461 157.473 61.3612 159.489 61.6751C161.506 61.9889 161.512 55.5492 160.102 53.636C158.693 51.7228 159.354 38.94 159.354 38.94L159.723 36.3387L164.846 32.6692L165.037 32.4942L165.306 34.0996L166.336 34.1901V34.2626L166.385 34.7273L167.047 46.9126L170.675 60.6973C170.675 60.6973 173.531 68.5976 175.548 68.9114C177.564 69.2253 177.57 62.7856 176.161 60.8724C174.751 58.9592 175.419 46.1824 175.419 46.1824L176.914 35.5421V35.3369L176.945 35.1015L179.893 35.355C179.893 35.355 182.958 24.9802 177.827 20.4598L176.896 18.4983L178.809 17.1343L179.194 16.8627C180.815 18.4238 182.992 19.298 185.259 19.298C187.527 19.298 189.703 18.4238 191.324 16.8627C192.758 16.994 194.192 16.6174 195.369 15.8005L196.111 15.2754C196.908 14.7765 197.629 14.1667 198.25 13.4648C198.77 12.5112 197.526 4.23074 190.968 1.13462Z" fill="url(#paint1_linear)"/>
</g>
<path d="M132.387 26.7184C132.387 26.7184 123.665 37.2199 124.076 40.9014L85.3159 67.4871L87.3017 71.742C87.3017 71.742 115.133 60.9086 134.103 49.0371L133.258 66.7025C133.258 66.7025 115.931 80.8071 111.425 88.0072L114.889 93.4813L146.686 68.4527C146.686 68.4527 156.119 51.4814 151.589 42.2232L132.387 26.7184Z" fill="#2F3037"/>
<path d="M411.257 283.852C383.409 393.833 270.271 460.785 158.542 433.352C46.816 405.92 -21.118 294.505 6.74844 184.515C34.6156 74.521 147.723 7.56272 259.415 34.9896C371.104 62.416 439.105 173.844 411.257 283.852Z" fill="url(#paint2_linear)" stroke="url(#paint3_linear)"/>
<path d="M411.495 283.914C383.611 394.033 270.337 461.059 158.484 433.595C46.6292 406.132 -21.3936 294.583 6.50856 184.452C34.4108 74.3206 147.654 7.28902 259.471 34.7466C371.288 62.2042 439.378 173.765 411.495 283.914Z" stroke="url(#paint4_linear)" stroke-width="0.5"/>
<path d="M264.489 234.121C274.471 238.888 281.7 246.443 286.177 256.788C290.654 267.132 291.412 277.816 288.454 288.84C285.782 298.797 280.927 306.931 273.888 313.242C267.076 319.424 258.467 323.41 248.062 325.199C237.656 326.989 226.131 326.193 213.487 322.81L133.083 301.3L183.043 115.144L259.974 135.725C272.618 139.108 282.933 144.059 290.918 150.577C299.081 157.144 304.499 164.692 307.172 173.22C310.024 181.796 310.21 190.707 307.729 199.953C304.817 210.799 299.446 219.081 291.613 224.798C283.958 230.563 274.916 233.671 264.489 234.121ZM199.826 201.958L234.019 211.106C242.922 213.488 250.304 213.365 256.161 210.74C262.067 207.937 266.022 202.802 268.026 195.334C270.031 187.867 269.177 181.445 265.467 176.07C261.755 170.693 255.448 166.815 246.544 164.432L212.352 155.285L199.826 201.958ZM216.304 290.977C225.387 293.407 232.993 293.155 239.125 290.221C245.435 287.337 249.639 281.982 251.739 274.159C253.886 266.158 252.885 259.22 248.735 253.346C244.634 247.294 238.042 243.053 228.959 240.624L192.096 230.761L178.64 280.901L216.304 290.977Z" fill="url(#paint5_linear)"/>
<path d="M183.35 115.652L201.049 202.35L159.566 202.902L183.35 115.652Z" fill="#FFF500" stroke="#FFF500"/>
<path d="M261.336 136.084L182.796 114.547L199.942 202.35L218.748 133.128L261.336 136.084Z" fill="#FEF8BD"/>
<path d="M218.194 124.487L177.818 112.891L186.938 136.636L218.194 124.487Z" fill="#FDE547" stroke="#FDE547"/>
<path d="M198.139 202.364L180.584 185.231L173.981 204.38L198.139 202.364Z" fill="url(#paint6_linear)"/>
<path d="M159.566 202.902L133.018 301.196L203.023 202.909L159.566 202.902Z" fill="url(#paint7_linear)"/>
<path d="M201.049 203.454L203.023 202.909L201.049 203.454ZM203.023 202.909L133.018 301.196L159.566 202.902L203.023 202.909Z" stroke="url(#paint8_linear)"/>
<path d="M273.696 268.063L253.04 270.824C253.477 272.134 247.657 282.98 244.743 287.163L272.056 314.449C279.048 311.83 284.047 300.547 286.779 292.361L273.696 268.063Z" fill="#D50005" stroke="#D50005"/>
<path d="M133.018 301.196L162.885 309.479L166.203 280.764L168.416 250.945L150.164 276.899L133.018 301.196Z" fill="url(#paint9_linear)"/>
<path d="M166.757 280.212H178.372L163.438 309.479L166.757 280.212Z" fill="#D41316" stroke="#D51316"/>
<path d="M203.814 202.35L168.416 250.945L192.752 229.408L203.814 202.35Z" fill="url(#paint10_linear)"/>
<path d="M289.544 284.63L274.058 267.511L285.673 297.331C286.558 296.447 288.623 287.943 289.544 284.63Z" fill="#EE4371"/>
<path d="M220.96 323.837L181.69 313.897L196.071 285.182L217.089 291.256L220.96 323.837Z" fill="url(#paint11_linear)"/>
<path d="M192.752 229.408L168.416 250.945L166.204 279.66L178.925 281.316L192.752 229.408Z" fill="url(#paint12_linear)"/>
<path d="M203.814 318.867L165.097 309.479L178.372 280.764L196.071 285.182L203.814 318.867Z" fill="#FEAC1E"/>
<path d="M165.171 28.5049L166.176 47.0937L169.695 60.4741C169.695 60.4741 172.465 68.145 174.426 68.4467C176.388 68.7485 176.394 62.4959 175.04 60.637C173.684 58.7781 174.334 46.3755 174.334 46.3755L176.516 30.5931L165.171 28.5049Z" fill="#FDA57D"/>
<path d="M164.001 31.6191L164.509 34.6368L178.692 35.8438C178.692 35.8438 181.658 25.7709 176.681 21.359L164.001 31.6191Z" fill="#E93B1B"/>
<path d="M176.682 21.4013L171.441 10.3868C171.441 10.3868 161.543 -6.92857 132.307 27.0383L151.589 42.1991L164.068 33.2668L176.682 21.4013Z" fill="#E93B1B"/>
<path d="M180.812 6.24158L185.474 12.559L175.296 19.8437C174.586 20.3519 173.7 20.5615 172.833 20.4265C171.966 20.2914 171.189 19.8227 170.673 19.1235L169.906 18.0836C169.389 17.3844 169.176 16.512 169.313 15.6583C169.451 14.8045 169.927 14.0394 170.637 13.5312L180.815 6.24647L180.812 6.24158Z" fill="#FDA57D"/>
<path opacity="0.05" d="M175.4 10.1152C175.002 11.5316 174.998 13.0278 175.39 14.4459C175.783 15.864 176.557 17.1514 177.632 18.1724L182.443 14.7262L177.779 8.40723L175.4 10.1152Z" fill="black"/>
<path d="M188.825 18.6701C192.585 15.9794 193.422 10.8037 190.696 7.10981C187.97 3.41589 182.711 2.60258 178.952 5.29323C175.193 7.98388 174.355 13.1596 177.082 16.8535C179.808 20.5474 185.066 21.3607 188.825 18.6701Z" fill="#FDA57D"/>
<path opacity="0.05" d="M179.997 7.10362L175.137 10.3023L175.75 8.74523C175.75 8.74523 179.746 -1.51483 189.062 2.90907C195.43 5.92673 196.637 13.9537 196.153 14.8711C195.434 15.641 194.609 16.3074 193.702 16.8507C192.506 17.685 191.037 18.0474 189.583 17.8664C188.129 17.6854 186.797 16.974 185.851 15.873C184.22 13.9598 181.376 10.0006 181.897 7.7313C181.419 6.87428 180.794 6.52423 179.991 7.12776L179.997 7.10362Z" fill="black"/>
<path d="M180.377 6.83202L175.517 10.0307L176.13 8.47363C176.13 8.47363 180.126 -1.78644 189.442 2.63746C195.81 5.65513 197.018 13.6821 196.533 14.5995C195.814 15.3694 194.99 16.0358 194.082 16.5791C192.886 17.4134 191.416 17.7758 189.962 17.5948C188.51 17.4138 187.177 16.7024 186.23 15.6014C184.6 13.6881 181.757 9.72898 182.277 7.45969C181.799 6.60267 181.174 6.25262 180.371 6.85616L180.377 6.83202Z" fill="#5A2F32"/>
<path d="M182.019 7.3637C182.856 6.76388 183.287 5.94496 182.983 5.53457C182.68 5.12418 181.756 5.27774 180.92 5.87756C180.084 6.47737 179.652 7.29632 179.955 7.7067C180.258 8.11709 181.183 7.96351 182.019 7.3637Z" fill="#FDA57D"/>
<path opacity="0.05" d="M162.438 33.0193L164.662 31.1423L164.687 34.1057L164.203 32.965L162.438 33.0193Z" fill="black"/>
<path opacity="0.05" d="M165.49 34.8058L165.539 35.2644L175.768 36.049L175.83 35.6205L165.49 34.8058Z" fill="black"/>
<path d="M149.591 21.4858L150.597 40.0746L154.114 53.4248C154.114 53.4248 156.885 61.0957 158.846 61.3975C160.807 61.6992 160.813 55.4466 159.459 53.5877C158.105 51.7289 158.742 39.3564 158.742 39.3564L160.96 23.574L149.591 21.4858Z" fill="#FDA57D"/>
<path d="M233.038 163.419H231.972V164.469H233.038V163.419Z" fill="#CCCCCC"/>
<path d="M231.279 165H233.914C234.103 165 234.291 165.037 234.465 165.108C234.64 165.179 234.799 165.284 234.933 165.415C235.067 165.547 235.172 165.703 235.244 165.876C235.318 166.048 235.355 166.232 235.355 166.418V175.163H229.839V166.418C229.839 166.232 229.875 166.048 229.948 165.876C230.02 165.703 230.127 165.547 230.26 165.415C230.394 165.284 230.553 165.179 230.728 165.108C230.902 165.037 231.09 165 231.279 165Z" fill="#535461"/>
<path d="M234.11 164.3H230.905V165H234.11V164.3Z" fill="#F7931A"/>
<path d="M235.355 169.026H229.839V171.126H235.355V169.026Z" fill="#F7931A"/>
<path d="M233.042 163.594V164.119C232.848 164.119 232.689 163.998 232.689 163.853C232.689 163.708 232.848 163.594 233.042 163.594Z" fill="#E6E6E6"/>
<path opacity="0.05" d="M150.719 12.4449C150.719 12.4449 148.378 18.6673 149.371 20.7917L150.719 12.4449Z" fill="black"/>
<path opacity="0.05" d="M149.64 21.1659L149.634 22.3187L160.869 24.1776L161.003 23.2542L149.64 21.1659Z" fill="black"/>
<path d="M152.177 11.6844L149.591 21.4858L160.954 23.574L163.958 11.2016L152.177 11.6844Z" fill="#E93B1B"/>
<g opacity="0.5">
<path opacity="0.5" d="M151.792 45.6332L154.029 53.974C154.029 53.974 156.915 61.8199 158.932 62.1157C160.948 62.4114 160.978 56.0381 159.545 54.143C158.791 53.1472 158.632 49.1759 158.644 45.6332H151.792Z" fill="url(#paint13_linear)"/>
</g>
<path d="M151.969 45.6332L154.12 53.799C154.12 53.799 156.891 61.4699 158.852 61.7717C160.813 62.0734 160.819 55.8208 159.465 53.9619C158.741 52.9842 158.588 49.0974 158.6 45.6332H151.969Z" fill="#FDA57D"/>
<g opacity="0.5">
<path opacity="0.5" d="M174.72 45.2891H165.771L165.894 47.4981L169.621 61.2707C169.621 61.2707 172.557 69.1649 174.629 69.4788C176.7 69.7926 176.706 63.3529 175.241 61.4457C173.776 59.5386 174.512 46.7859 174.512 46.7859L174.72 45.2891Z" fill="url(#paint14_linear)"/>
</g>
<path d="M174.518 45.2891H166.06L166.176 47.4377L169.695 60.8181C169.695 60.8181 172.465 68.489 174.426 68.7907C176.388 69.0925 176.394 62.8399 175.039 60.981C173.684 59.1221 174.334 46.7195 174.334 46.7195L174.518 45.2891Z" fill="#FDA57D"/>
<path opacity="0.2" d="M232.903 163.558L248.226 160.54L248.839 167.782L232.903 164.161V163.558Z" fill="white"/>
<g opacity="0.5">
<path opacity="0.5" d="M209.784 165.791L210.207 165.972L223.691 171.687L240.87 151.62C240.87 151.62 243.476 148.753 240.374 146.791C237.273 144.83 235.324 149.906 235.324 149.906L222.122 163.871L210.906 158.349L211.084 157.19L200.86 151.372C200.662 151.006 200.445 150.649 200.211 150.304L200.119 149.978L199.61 149.538C199.512 149.435 199.414 149.338 199.316 149.254L201.007 147.443C202.266 147.878 203.607 148.034 204.934 147.902C206.261 147.77 207.542 147.352 208.687 146.679C209.832 146.005 210.812 145.092 211.559 144.004C212.305 142.916 212.801 141.679 213.009 140.382C213.8 140.53 214.614 140.53 215.405 140.382C216.446 140.166 217.418 139.706 218.24 139.041C219.061 138.376 219.708 137.525 220.125 136.562C220.089 136.627 220.04 136.683 219.979 136.726C219.919 136.769 219.849 136.797 219.775 136.809C219.907 136.583 220.023 136.349 220.125 136.109C219.775 136.942 216.508 135.795 216.018 135.505C214.522 134.721 213.75 133.562 212.953 132.138C211.427 129.325 208.607 128.287 205.433 128.04C203.007 127.781 200.554 128.085 198.268 128.927C197.13 129.356 196.094 130.012 195.225 130.854C194.358 131.697 193.676 132.707 193.224 133.821C192.951 134.586 192.826 135.395 192.856 136.205C192.805 137.073 192.951 137.942 193.283 138.747C193.616 139.552 194.128 140.273 194.781 140.859C194.893 140.953 195.009 141.042 195.13 141.124C195.198 141.384 195.271 141.637 195.363 141.891L194.916 142.368L192.01 145.47L191.863 145.427L161.261 149.936V149.996C160.243 149.332 155.635 147.027 144.13 150.159C139.785 151.366 132.547 151.215 124.775 150.509C119.344 143.858 115.839 123.145 115.839 123.145L114.466 117.285L96.6487 121.34C96.6487 121.34 104.867 123.151 106.241 125.396C108.331 126.084 109.624 141.456 110.121 148.711C99.4497 147.087 90.7097 145.228 90.7097 145.228L84.3171 142.977L79.751 158.753C79.751 158.753 84.7768 153.322 89.343 152.893C89.343 152.893 112.179 163.708 129.084 161.457C135.666 160.582 142.028 163.322 147.354 164.161C152.016 164.926 156.727 165.378 161.451 165.513L161.506 170.468C161.506 170.468 180.316 169.671 192.673 165.809C193.61 168.307 194.364 170.112 194.628 170.245L196.871 169.164L209.472 184.44L234.129 174.518C234.129 174.518 237.807 173.166 235.968 170.009C234.129 166.853 230.029 170.462 230.029 170.462L211.758 176.769L204.048 166.243L203.748 165.833L205.366 165.054C205.366 165.054 205.316 164.819 205.219 164.415L209.472 167.758L209.784 165.791Z" fill="url(#paint15_linear)"/>
</g>
<path d="M194.878 152.893L189.234 147.739L198.581 137.763L204.226 142.911L194.878 152.893Z" fill="#FDA57D"/>
<path opacity="0.05" d="M198.133 138.197L194.009 142.603C194.453 143.841 195.176 144.965 196.12 145.891C197.066 146.818 198.21 147.524 199.469 147.956L203.76 143.351L198.133 138.197Z" fill="black"/>
<path d="M199.346 161.524L221.981 171.114L238.707 151.596C238.707 151.596 241.239 148.807 238.223 146.9C235.208 144.993 233.32 149.918 233.32 149.918L220.449 163.485L203.931 155.362L199.346 161.524Z" fill="#FDA57D"/>
<path d="M198.157 150.153L209.711 156.725L208.154 167.027L197.269 158.481L198.157 150.153Z" fill="#3A2C8A"/>
<path d="M202.822 148.017C207.73 148.017 211.709 144.09 211.709 139.247C211.709 134.404 207.73 130.478 202.822 130.478C197.914 130.478 193.935 134.404 193.935 139.247C193.935 144.09 197.914 148.017 202.822 148.017Z" fill="#FDA57D"/>
<path d="M195.517 146.646L191.073 145.33L161.285 149.718L161.506 169.635C161.506 169.635 197.716 168.102 201.712 158.898L199.046 149.718L195.517 146.646Z" fill="#3A2C8A"/>
<path opacity="0.05" d="M197.619 159.019L208.154 167.299L208.601 163.793L198.157 153.931L197.619 159.019Z" fill="black"/>
<path d="M161.506 150.201C161.506 150.201 157.51 146.695 144.627 150.201C131.743 153.708 92.6462 145.373 92.6462 145.373L91.3223 152.833C91.3223 152.833 113.534 163.352 129.972 161.162C136.37 160.311 142.561 162.972 147.746 163.793C152.297 164.533 156.895 164.963 161.506 165.078V150.201Z" fill="#6BA3FF"/>
<path d="M92.6462 145.379L86.4192 143.188L81.9756 158.53C81.9756 158.53 86.8789 153.267 91.304 152.833L92.6462 145.379Z" fill="#535461"/>
<path d="M107.749 126.096L117.064 123.905C117.064 123.905 121.508 150.207 128.171 152.398H111.751C111.751 152.398 110.415 126.971 107.749 126.096Z" fill="#6BA3FF"/>
<path d="M117.064 123.905L115.734 118.208L98.4077 122.155C98.4077 122.155 106.376 123.911 107.736 126.102L117.064 123.905Z" fill="#535461"/>
<path opacity="0.05" d="M204.237 129.108C201.879 128.856 199.491 129.152 197.268 129.971C196.161 130.388 195.155 131.027 194.311 131.846C193.467 132.666 192.804 133.649 192.366 134.733C191.569 136.93 192.084 139.627 193.886 141.136C194.313 141.534 194.863 141.78 195.448 141.836C196.393 141.873 197.183 141.191 197.9 140.599C199.262 139.493 200.761 138.562 202.362 137.829C203.723 137.225 205.384 136.743 206.652 137.509C207.226 137.929 207.747 138.415 208.203 138.958C208.938 139.676 209.84 140.206 210.832 140.5C211.823 140.793 212.873 140.842 213.889 140.642C214.904 140.441 215.853 139.998 216.654 139.35C217.453 138.703 218.079 137.872 218.475 136.93C218.132 137.744 214.957 136.622 214.479 136.374C213.02 135.614 212.273 134.485 211.525 133.103C210.066 130.357 207.321 129.349 204.237 129.108Z" fill="black"/>
<path d="M204.237 128.673C201.879 128.422 199.491 128.717 197.268 129.536C196.161 129.954 195.155 130.592 194.311 131.412C193.467 132.231 192.804 133.214 192.366 134.298C191.569 136.495 192.084 139.193 193.886 140.702C194.313 141.099 194.863 141.345 195.448 141.402C196.393 141.438 197.183 140.756 197.9 140.165C199.262 139.058 200.761 138.127 202.362 137.394C203.723 136.791 205.384 136.308 206.652 137.075C207.226 137.494 207.747 137.981 208.203 138.523C208.938 139.242 209.84 139.771 210.832 140.065C211.823 140.359 212.873 140.408 213.889 140.207C214.904 140.007 215.853 139.563 216.654 138.916C217.453 138.269 218.079 137.437 218.475 136.495C218.132 137.31 214.957 136.187 214.479 135.94C213.02 135.179 212.273 134.051 211.525 132.669C210.066 129.923 207.321 128.909 204.237 128.673Z" fill="black"/>
<path d="M200.585 138.522C200.755 137.815 200.602 137.174 200.243 137.09C199.884 137.006 199.455 137.511 199.284 138.218C199.114 138.925 199.267 139.566 199.626 139.65C199.986 139.734 200.415 139.229 200.585 138.522Z" fill="#FDA57D"/>
<path opacity="0.05" d="M195.896 168.657L196.196 169.02L202.877 165.827L202.583 165.429L195.896 168.657Z" fill="black"/>
<path opacity="0.05" d="M209.539 158.126L208.448 165.326L208.853 165.555L209.711 158.204L209.539 158.126Z" fill="black"/>
<path d="M174.389 139.682H169.057V175.188H174.389V139.682Z" fill="#E0E0E0"/>
<path d="M164.313 41.9516L159.259 40.2794L147.776 73.9367L152.83 75.6088L164.313 41.9516Z" fill="#E0E0E0"/>
<path d="M172.611 143.629H170.834V57.8909L172.587 57.9814L172.611 143.629Z" fill="#E0E0E0"/>
<path d="M192.604 164.668L208.154 183.516L232.143 173.86C232.143 173.86 235.698 172.544 233.921 169.478C232.143 166.412 228.147 169.919 228.147 169.919L210.373 176.057L199.561 161.3L192.604 164.668Z" fill="#FDA57D"/>
<path d="M186.163 149.109C186.163 149.109 192.826 169.273 193.714 169.708L204.133 164.668C204.133 164.668 201.174 151.07 197.875 148.976C194.578 146.882 186.611 147.353 186.163 149.109Z" fill="#3A2C8A"/>
<path opacity="0.05" d="M188.064 154.764C188.064 154.764 187.713 162.477 189.938 163.817L188.064 154.764Z" fill="black"/>
<path d="M170.846 57.9814L162.83 46.3151L163.669 43.8467L172.587 57.9814H170.846Z" fill="#E0E0E0"/>
<path d="M211.59 142.44L210.431 141.682L208.487 144.562L209.646 145.32L211.59 142.44Z" fill="black"/>
<path d="M209.967 142.304L201.376 136.68L200.99 137.253L209.579 142.877L209.967 142.304Z" fill="black"/>
<g opacity="0.7">
<path opacity="0.7" d="M370.352 370.509H348.092V386.708H370.352V370.509Z" fill="url(#paint16_linear)"/>
<g opacity="0.1">
<path opacity="0.1" d="M348.092 374.8C348.092 374.8 356.396 375.754 359.222 375.754C362.047 375.754 370.352 374.8 370.352 374.8V370.751H348.092V374.8Z" fill="url(#paint17_linear)"/>
</g>
<path opacity="0.7" d="M370.352 374.559C370.352 374.559 362.047 375.512 359.222 375.512C356.396 375.512 348.092 374.559 348.092 374.559V358.595C348.092 355.689 349.265 352.901 351.352 350.845C353.439 348.79 356.27 347.635 359.222 347.635C362.174 347.635 365.005 348.79 367.093 350.845C369.179 352.901 370.352 355.689 370.352 358.595V374.559Z" fill="url(#paint18_linear)"/>
<path opacity="0.7" d="M359.222 350.737C358.517 350.737 357.84 350.461 357.341 349.97C356.843 349.479 356.562 348.813 356.562 348.118V342.161H361.882V348.118C361.882 348.813 361.602 349.479 361.103 349.97C360.604 350.461 359.928 350.737 359.222 350.737Z" fill="url(#paint19_linear)"/>
<path opacity="0.7" d="M356.077 380.993H348.092V434.363H356.077V380.993Z" fill="url(#paint20_linear)"/>
<path opacity="0.7" d="M370.353 380.993H362.366V434.363H370.353V380.993Z" fill="url(#paint21_linear)"/>
<g opacity="0.1">
<path opacity="0.1" d="M356.562 346.139C358.31 346.562 360.135 346.562 361.882 346.139V342.397H356.562V346.139Z" fill="url(#paint22_linear)"/>
</g>
<path opacity="0.7" d="M359.222 344.062C365.637 344.062 370.837 338.942 370.837 332.625C370.837 326.309 365.637 321.188 359.222 321.188C352.808 321.188 347.608 326.309 347.608 332.625C347.608 338.942 352.808 344.062 359.222 344.062Z" fill="url(#paint23_linear)"/>
<path opacity="0.7" d="M359.222 346.211C365.369 346.211 370.352 341.304 370.352 335.251C370.352 329.198 365.369 324.291 359.222 324.291C353.074 324.291 348.092 329.198 348.092 335.251C348.092 341.304 353.074 346.211 359.222 346.211Z" fill="url(#paint24_linear)"/>
<g opacity="0.1">
<path opacity="0.1" d="M352.481 329.753C353.088 330.083 353.758 330.289 354.448 330.356C357.299 330.739 360.201 330.418 362.894 329.421C363.147 329.959 363.515 330.436 363.975 330.818C364.434 331.201 364.973 331.48 365.554 331.636C366.717 331.939 367.919 332.071 369.121 332.028C369.385 332.056 369.652 332.006 369.887 331.883C370.42 331.527 370.163 330.712 369.85 330.157L368.3 327.387C367.888 326.544 367.332 325.776 366.657 325.117C365.72 324.389 364.604 323.916 363.421 323.747C360.668 323.208 357.826 323.301 355.116 324.019C352.23 324.773 348.51 327.387 352.481 329.753Z" fill="url(#paint25_linear)"/>
</g>
<path opacity="0.7" d="M352.481 329.517C353.088 329.848 353.758 330.053 354.448 330.121C357.299 330.504 360.201 330.182 362.894 329.185C363.147 329.723 363.515 330.2 363.975 330.583C364.434 330.965 364.973 331.244 365.554 331.4C366.717 331.703 367.919 331.835 369.121 331.793C369.385 331.821 369.652 331.771 369.887 331.648C370.42 331.292 370.163 330.477 369.85 329.922L368.3 327.151C367.888 326.308 367.332 325.541 366.657 324.882C365.72 324.154 364.604 323.681 363.421 323.512C360.668 322.972 357.826 323.065 355.116 323.784C352.23 324.538 348.51 327.145 352.481 329.517Z" fill="url(#paint26_linear)"/>
<path opacity="0.7" d="M370.23 337.037C370.764 337.037 371.199 336.237 371.199 335.251C371.199 334.264 370.764 333.464 370.23 333.464C369.695 333.464 369.262 334.264 369.262 335.251C369.262 336.237 369.695 337.037 370.23 337.037Z" fill="url(#paint27_linear)"/>
<path opacity="0.7" d="M348.215 337.037C348.75 337.037 349.183 336.237 349.183 335.251C349.183 334.264 348.75 333.464 348.215 333.464C347.679 333.464 347.246 334.264 347.246 335.251C347.246 336.237 347.679 337.037 348.215 337.037Z" fill="url(#paint28_linear)"/>
<path opacity="0.7" d="M388.985 323.814C390.455 323.814 391.645 322.641 391.645 321.194C391.645 319.748 390.455 318.575 388.985 318.575C387.516 318.575 386.325 319.748 386.325 321.194C386.325 322.641 387.516 323.814 388.985 323.814Z" fill="url(#paint29_linear)"/>
<path opacity="0.7" d="M361.541 362.24C361.541 362.974 361.46 363.609 361.3 364.146C361.14 364.683 360.922 365.127 360.646 365.478C360.37 365.829 360.045 366.092 359.673 366.265C359.305 366.435 358.91 366.52 358.49 366.52C358.069 366.52 357.675 366.435 357.306 366.265C356.938 366.092 356.616 365.829 356.339 365.478C356.063 365.127 355.845 364.683 355.685 364.146C355.528 363.609 355.45 362.974 355.45 362.24C355.45 361.506 355.528 360.87 355.685 360.333C355.845 359.797 356.063 359.353 356.339 359.001C356.616 358.65 356.938 358.39 357.306 358.22C357.675 358.046 358.069 357.96 358.49 357.96C358.91 357.96 359.305 358.046 359.673 358.22C360.045 358.39 360.37 358.65 360.646 359.001C360.922 359.353 361.14 359.797 361.3 360.333C361.46 360.87 361.541 361.506 361.541 362.24ZM360.94 362.24C360.94 361.561 360.874 360.981 360.742 360.499C360.609 360.018 360.432 359.625 360.207 359.321C359.987 359.013 359.727 358.788 359.426 358.646C359.13 358.504 358.818 358.433 358.49 358.433C358.161 358.433 357.849 358.504 357.552 358.646C357.256 358.788 356.996 359.013 356.772 359.321C356.548 359.625 356.369 360.018 356.237 360.499C356.105 360.981 356.039 361.561 356.039 362.24C356.039 362.922 356.105 363.505 356.237 363.986C356.369 364.464 356.548 364.856 356.772 365.164C356.996 365.468 357.256 365.691 357.552 365.833C357.849 365.971 358.161 366.04 358.49 366.04C358.818 366.04 359.13 365.971 359.426 365.833C359.727 365.691 359.987 365.468 360.207 365.164C360.432 364.856 360.609 364.464 360.742 363.986C360.874 363.505 360.94 362.922 360.94 362.24ZM361.541 376.24C361.541 376.974 361.46 377.609 361.3 378.146C361.14 378.683 360.922 379.127 360.646 379.478C360.37 379.829 360.045 380.092 359.673 380.265C359.305 380.435 358.91 380.52 358.49 380.52C358.069 380.52 357.675 380.435 357.306 380.265C356.938 380.092 356.616 379.829 356.339 379.478C356.063 379.127 355.845 378.683 355.685 378.146C355.528 377.609 355.45 376.974 355.45 376.24C355.45 375.506 355.528 374.87 355.685 374.333C355.845 373.797 356.063 373.353 356.339 373.001C356.616 372.65 356.938 372.39 357.306 372.22C357.675 372.046 358.069 371.96 358.49 371.96C358.91 371.96 359.305 372.046 359.673 372.22C360.045 372.39 360.37 372.65 360.646 373.001C360.922 373.353 361.14 373.797 361.3 374.333C361.46 374.87 361.541 375.506 361.541 376.24ZM360.94 376.24C360.94 375.561 360.874 374.981 360.742 374.499C360.609 374.018 360.432 373.625 360.207 373.321C359.987 373.013 359.727 372.788 359.426 372.646C359.13 372.504 358.818 372.433 358.49 372.433C358.161 372.433 357.849 372.504 357.552 372.646C357.256 372.788 356.996 373.013 356.772 373.321C356.548 373.625 356.369 374.018 356.237 374.499C356.105 374.981 356.039 375.561 356.039 376.24C356.039 376.922 356.105 377.505 356.237 377.986C356.369 378.464 356.548 378.856 356.772 379.164C356.996 379.468 357.256 379.691 357.552 379.833C357.849 379.971 358.161 380.04 358.49 380.04C358.818 380.04 359.13 379.971 359.426 379.833C359.727 379.691 359.987 379.468 360.207 379.164C360.432 378.856 360.609 378.464 360.742 377.986C360.874 377.505 360.94 376.922 360.94 376.24Z" fill="black"/>
<path opacity="0.7" d="M359.468 339.536C359.468 339.536 353.179 341.678 348.337 336.916C348.337 336.916 348.73 338.498 349.404 340.399C350.494 342.435 352.208 344.081 354.303 345.104C356.396 346.127 358.764 346.474 361.07 346.098C363.376 345.721 365.503 344.639 367.149 343.005C368.796 341.371 369.878 339.268 370.242 336.995C369.078 337.611 360.81 341.527 359.468 339.536ZM359.228 342.397C358.003 342.397 357.053 341.491 357.053 340.966C357.053 340.441 358.027 340.489 359.228 340.489C360.429 340.489 361.404 340.441 361.404 340.966C361.404 341.491 360.423 342.397 359.222 342.397H359.228Z" fill="url(#paint30_linear)"/>
<path opacity="0.7" d="M365.137 349.319C365.137 349.319 378.094 342.161 386.079 321.194L389.953 323.578C389.953 323.578 383.542 350.297 367.453 356.459L365.137 349.319Z" fill="url(#paint31_linear)"/>
<path opacity="0.7" d="M329.466 323.814C330.935 323.814 332.126 322.641 332.126 321.194C332.126 319.748 330.935 318.575 329.466 318.575C327.997 318.575 326.806 319.748 326.806 321.194C326.806 322.641 327.997 323.814 329.466 323.814Z" fill="url(#paint32_linear)"/>
<path opacity="0.7" d="M353.308 349.319C353.308 349.319 340.351 342.161 332.365 321.194L328.517 323.572C328.517 323.572 334.928 350.291 351.016 356.453L353.308 349.319Z" fill="url(#paint33_linear)"/>
<path opacity="0.7" d="M355.594 436.27H348.576V435.914C348.576 434.999 348.945 434.12 349.603 433.473C350.26 432.826 351.152 432.462 352.082 432.462C353.012 432.462 353.904 432.826 354.561 433.473C355.219 434.12 355.588 434.999 355.588 435.914L355.594 436.27Z" fill="url(#paint34_linear)"/>
<path opacity="0.7" d="M369.869 436.27H362.838V435.914C362.838 434.999 363.208 434.12 363.866 433.473C364.523 432.826 365.414 432.462 366.344 432.462C367.274 432.462 368.165 432.826 368.823 433.473C369.48 434.12 369.85 434.999 369.85 435.914L369.869 436.27Z" fill="url(#paint35_linear)"/>
</g>
<path d="M370.034 370.708H348.417V386.442H370.034V370.708Z" fill="#4D8AF0"/>
<path opacity="0.1" d="M348.417 374.873C348.417 374.873 356.483 375.796 359.222 375.796C361.962 375.796 370.028 374.873 370.028 374.873V370.944H348.417V374.873Z" fill="black"/>
<path d="M370.028 374.643C370.028 374.643 361.962 375.567 359.222 375.567C356.483 375.567 348.417 374.643 348.417 374.643V359.145C348.417 356.323 349.555 353.616 351.581 351.621C353.609 349.625 356.357 348.504 359.222 348.504C362.088 348.504 364.837 349.625 366.863 351.621C368.89 353.616 370.028 356.323 370.028 359.145V374.643Z" fill="#6C63FF"/>
<path d="M356.636 343.181H361.803V348.963C361.803 349.639 361.53 350.286 361.045 350.764C360.56 351.242 359.902 351.51 359.216 351.51C358.53 351.51 357.873 351.242 357.388 350.764C356.903 350.286 356.63 349.639 356.63 348.963V343.181H356.636Z" fill="#FDB797"/>
<path d="M356.17 380.89H348.417V432.709H356.17V380.89Z" fill="#4D8AF0"/>
<path d="M370.029 380.89H362.275V432.709H370.029V380.89Z" fill="#4D8AF0"/>
<path opacity="0.1" d="M356.643 347.038C358.34 347.449 360.112 347.449 361.81 347.038V343.417H356.643V347.038Z" fill="black"/>
<path d="M359.222 345.034C365.451 345.034 370.5 340.062 370.5 333.929C370.5 327.796 365.451 322.824 359.222 322.824C352.994 322.824 347.945 327.796 347.945 333.929C347.945 340.062 352.994 345.034 359.222 345.034Z" fill="#814E4D"/>
<path d="M359.222 347.11C365.19 347.11 370.028 342.346 370.028 336.47C370.028 330.593 365.19 325.83 359.222 325.83C353.254 325.83 348.417 330.593 348.417 336.47C348.417 342.346 353.254 347.11 359.222 347.11Z" fill="#FDB797"/>
<path opacity="0.1" d="M352.676 331.135C353.269 331.45 353.919 331.643 354.589 331.702C357.356 332.075 360.175 331.764 362.789 330.797C363.035 331.32 363.393 331.784 363.841 332.156C364.287 332.529 364.811 332.8 365.376 332.951C366.505 333.245 367.672 333.373 368.839 333.332C369.097 333.361 369.358 333.313 369.587 333.193C370.107 332.849 369.856 332.058 369.549 331.515L368.042 328.829C367.642 328.011 367.103 327.266 366.449 326.626C365.537 325.92 364.452 325.462 363.305 325.298C360.63 324.775 357.871 324.866 355.239 325.564C352.42 326.3 348.816 328.835 352.676 331.135Z" fill="black"/>
<path d="M352.676 330.905C353.269 331.22 353.919 331.413 354.589 331.473C357.356 331.845 360.175 331.534 362.789 330.567C363.035 331.091 363.393 331.555 363.841 331.927C364.287 332.299 364.811 332.571 365.376 332.722C366.505 333.016 367.672 333.144 368.839 333.102C369.097 333.132 369.358 333.083 369.587 332.963C370.107 332.619 369.856 331.829 369.549 331.286L368.042 328.6C367.642 327.782 367.103 327.036 366.449 326.397C365.537 325.69 364.452 325.232 363.305 325.069C360.63 324.546 357.871 324.636 355.239 325.335C352.42 326.071 348.816 328.606 352.676 330.905Z" fill="#814E4D"/>
<path d="M369.912 338.202C370.429 338.202 370.85 337.427 370.85 336.47C370.85 335.513 370.429 334.738 369.912 334.738C369.394 334.738 368.975 335.513 368.975 336.47C368.975 337.427 369.394 338.202 369.912 338.202Z" fill="#FDB797"/>
<path d="M348.534 338.202C349.052 338.202 349.472 337.427 349.472 336.47C349.472 335.513 349.052 334.738 348.534 334.738C348.016 334.738 347.596 335.513 347.596 336.47C347.596 337.427 348.016 338.202 348.534 338.202Z" fill="#FDB797"/>
<path d="M388.121 325.371C389.55 325.371 390.707 324.231 390.707 322.824C390.707 321.417 389.55 320.277 388.121 320.277C386.693 320.277 385.535 321.417 385.535 322.824C385.535 324.231 386.693 325.371 388.121 325.371Z" fill="#FDB797"/>
<path d="M359.461 340.634C359.461 340.634 353.332 342.716 348.655 338.087C348.655 338.087 349.036 339.62 349.691 341.473C350.751 343.448 352.415 345.044 354.447 346.036C356.48 347.027 358.778 347.364 361.015 346.998C363.253 346.632 365.316 345.582 366.914 343.997C368.512 342.412 369.562 340.372 369.917 338.166C368.795 338.769 360.767 342.566 359.461 340.634ZM359.228 343.411C358.057 343.411 357.114 342.535 357.114 342.022C357.114 341.509 358.057 341.558 359.228 341.558C360.399 341.558 361.342 341.509 361.342 342.022C361.342 342.535 360.387 343.411 359.222 343.411H359.228Z" fill="#814E4D"/>
<path d="M364.966 350.134C364.966 350.134 377.548 343.181 385.302 322.824L389.059 325.136C389.059 325.136 382.831 351.087 367.209 357.062L364.966 350.134Z" fill="#6C63FF"/>
<path d="M330.324 325.371C331.753 325.371 332.911 324.231 332.911 322.824C332.911 321.417 331.753 320.277 330.324 320.277C328.896 320.277 327.737 321.417 327.737 322.824C327.737 324.231 328.896 325.371 330.324 325.371Z" fill="#FDB797"/>
<path d="M353.48 350.134C353.48 350.134 340.897 343.181 333.144 322.824L329.386 325.136C329.386 325.136 335.613 351.087 351.236 357.062L353.48 350.134Z" fill="#6C63FF"/>
<path d="M352.29 430.863C353.194 430.863 354.061 431.216 354.7 431.845C355.339 432.475 355.698 433.328 355.698 434.218V434.544H348.889V434.2C348.894 433.314 349.254 432.466 349.891 431.841C350.528 431.216 351.391 430.864 352.29 430.863Z" fill="#333333"/>
<path d="M366.155 430.863C367.059 430.863 367.925 431.216 368.565 431.845C369.204 432.475 369.563 433.328 369.563 434.218V434.544H362.747V434.2C362.752 433.313 363.113 432.464 363.751 431.839C364.39 431.214 365.254 430.863 366.155 430.863Z" fill="#333333"/>
</g>
<defs>
<linearGradient id="paint0_linear" x1="81.5958" y1="82.334" x2="81.5958" y2="67.9277" gradientUnits="userSpaceOnUse">
<stop stop-color="#808080" stop-opacity="0.25"/>
<stop offset="0.54" stop-color="#808080" stop-opacity="0.12"/>
<stop offset="1" stop-color="#808080" stop-opacity="0.1"/>
</linearGradient>
<linearGradient id="paint1_linear" x1="56144.5" y1="27550.5" x2="56144.5" y2="9035.85" gradientUnits="userSpaceOnUse">
<stop stop-color="#808080" stop-opacity="0.25"/>
<stop offset="0.54" stop-color="#808080" stop-opacity="0.12"/>
<stop offset="1" stop-color="#808080" stop-opacity="0.1"/>
</linearGradient>
<linearGradient id="paint2_linear" x1="-0.00146484" y1="28.3446" x2="497.283" y2="218.795" gradientUnits="userSpaceOnUse">
<stop stop-color="#A95D8D"/>
<stop offset="0.239583" stop-color="#6248B6"/>
<stop offset="0.432292" stop-color="#5C4BAD"/>
<stop offset="0.432392" stop-color="#5B4AAC"/>
<stop offset="0.713542" stop-color="#21178C"/>
<stop offset="0.802083" stop-color="#21178C"/>
<stop offset="1" stop-color="#20168B"/>
</linearGradient>
<linearGradient id="paint3_linear" x1="208.997" y1="28.3446" x2="208.997" y2="440" gradientUnits="userSpaceOnUse">
<stop stop-color="#70488B"/>
<stop offset="1" stop-color="#614493"/>
</linearGradient>
<linearGradient id="paint4_linear" x1="353.926" y1="-17.5398" x2="212.81" y2="441.174" gradientUnits="userSpaceOnUse">
<stop stop-color="#292076"/>
<stop offset="1" stop-color="#633D89"/>
</linearGradient>
<linearGradient id="paint5_linear" x1="214.323" y1="121.174" x2="241.339" y2="339.31" gradientUnits="userSpaceOnUse">
<stop offset="0.135417" stop-color="#FC211D"/>
<stop offset="0.5625" stop-color="#FE7C2B"/>
<stop offset="1" stop-color="#FFAF48"/>
</linearGradient>
<linearGradient id="paint6_linear" x1="190.883" y1="191.167" x2="180.951" y2="208.397" gradientUnits="userSpaceOnUse">
<stop stop-color="#F9DE2E"/>
<stop offset="1" stop-color="#FFF194"/>
</linearGradient>
<linearGradient id="paint7_linear" x1="168.416" y1="201.797" x2="136.245" y2="299.293" gradientUnits="userSpaceOnUse">
<stop stop-color="#0FE781"/>
<stop offset="0.331968" stop-color="#28AC99"/>
<stop offset="0.875" stop-color="#565DB2"/>
</linearGradient>
<linearGradient id="paint8_linear" x1="168.416" y1="201.797" x2="136.251" y2="300.396" gradientUnits="userSpaceOnUse">
<stop stop-color="#0FE781"/>
<stop offset="0.354167" stop-color="#28AC99" stop-opacity="0.645833"/>
<stop offset="0.784017" stop-color="#565DB2" stop-opacity="0"/>
</linearGradient>
<linearGradient id="paint9_linear" x1="151.546" y1="251.497" x2="151.546" y2="308.927" gradientUnits="userSpaceOnUse">
<stop stop-color="#FB474A"/>
<stop offset="1" stop-color="#AD1316"/>
</linearGradient>
<linearGradient id="paint10_linear" x1="185.839" y1="202.35" x2="185.839" y2="248.184" gradientUnits="userSpaceOnUse">
<stop stop-color="#9EDD11"/>
<stop offset="1" stop-color="#A9E91A"/>
</linearGradient>
<linearGradient id="paint11_linear" x1="205.197" y1="285.734" x2="205.197" y2="323.837" gradientUnits="userSpaceOnUse">
<stop stop-color="#FFC03B"/>
<stop offset="1" stop-color="#FFA341"/>
</linearGradient>
<linearGradient id="paint12_linear" x1="179.478" y1="229.408" x2="179.478" y2="280.212" gradientUnits="userSpaceOnUse">
<stop stop-color="#E6315D"/>
<stop offset="1" stop-color="#77273A"/>
</linearGradient>
<linearGradient id="paint13_linear" x1="4648.87" y1="3152.98" x2="4648.87" y2="2702.4" gradientUnits="userSpaceOnUse">
<stop stop-color="#808080" stop-opacity="0.25"/>
<stop offset="0.54" stop-color="#808080" stop-opacity="0.12"/>
<stop offset="1" stop-color="#808080" stop-opacity="0.1"/>
</linearGradient>
<linearGradient id="paint14_linear" x1="5814.8" y1="4900.19" x2="5814.8" y2="3929.99" gradientUnits="userSpaceOnUse">
<stop stop-color="#808080" stop-opacity="0.25"/>
<stop offset="0.54" stop-color="#808080" stop-opacity="0.12"/>
<stop offset="1" stop-color="#808080" stop-opacity="0.1"/>
</linearGradient>
<linearGradient id="paint15_linear" x1="84624.6" y1="26379.7" x2="84624.6" y2="18908" gradientUnits="userSpaceOnUse">
<stop stop-color="#808080" stop-opacity="0.25"/>
<stop offset="0.54" stop-color="#808080" stop-opacity="0.12"/>
<stop offset="1" stop-color="#808080" stop-opacity="0.1"/>
</linearGradient>
<linearGradient id="paint16_linear" x1="12990.9" y1="10532.3" x2="13799.4" y2="10532.3" gradientUnits="userSpaceOnUse">
<stop stop-color="#808080" stop-opacity="0.25"/>
<stop offset="0.54" stop-color="#808080" stop-opacity="0.12"/>
<stop offset="1" stop-color="#808080" stop-opacity="0.1"/>
</linearGradient>
<linearGradient id="paint17_linear" x1="18756.3" y1="3892.64" x2="19564.8" y2="3892.64" gradientUnits="userSpaceOnUse">
<stop stop-color="#808080" stop-opacity="0.25"/>
<stop offset="0.54" stop-color="#808080" stop-opacity="0.12"/>
<stop offset="1" stop-color="#808080" stop-opacity="0.1"/>
</linearGradient>
<linearGradient id="paint18_linear" x1="18756.3" y1="19431.8" x2="19564.8" y2="19431.8" gradientUnits="userSpaceOnUse">
<stop stop-color="#808080" stop-opacity="0.25"/>
<stop offset="0.54" stop-color="#808080" stop-opacity="0.12"/>
<stop offset="1" stop-color="#808080" stop-opacity="0.1"/>
</linearGradient>
<linearGradient id="paint19_linear" x1="4829.45" y1="5998.24" x2="4875.63" y2="5998.24" gradientUnits="userSpaceOnUse">
<stop stop-color="#808080" stop-opacity="0.25"/>
<stop offset="0.54" stop-color="#808080" stop-opacity="0.12"/>
<stop offset="1" stop-color="#808080" stop-opacity="0.1"/>
</linearGradient>
<linearGradient id="paint20_linear" x1="4883.75" y1="36431.7" x2="4987.81" y2="36431.7" gradientUnits="userSpaceOnUse">
<stop stop-color="#808080" stop-opacity="0.25"/>
<stop offset="0.54" stop-color="#808080" stop-opacity="0.12"/>
<stop offset="1" stop-color="#808080" stop-opacity="0.1"/>
</linearGradient>
<linearGradient id="paint21_linear" x1="5084.03" y1="36431.7" x2="5188.1" y2="36431.7" gradientUnits="userSpaceOnUse">
<stop stop-color="#808080" stop-opacity="0.25"/>
<stop offset="0.54" stop-color="#808080" stop-opacity="0.12"/>
<stop offset="1" stop-color="#808080" stop-opacity="0.1"/>
</linearGradient>
<linearGradient id="paint22_linear" x1="4829.45" y1="3005.99" x2="4875.63" y2="3005.99" gradientUnits="userSpaceOnUse">
<stop stop-color="#808080" stop-opacity="0.25"/>
<stop offset="0.54" stop-color="#808080" stop-opacity="0.12"/>
<stop offset="1" stop-color="#808080" stop-opacity="0.1"/>
</linearGradient>
<linearGradient id="paint23_linear" x1="13521.9" y1="12927.7" x2="14402.4" y2="12927.7" gradientUnits="userSpaceOnUse">
<stop stop-color="#808080" stop-opacity="0.25"/>
<stop offset="0.54" stop-color="#808080" stop-opacity="0.12"/>
<stop offset="1" stop-color="#808080" stop-opacity="0.1"/>
</linearGradient>
<linearGradient id="paint24_linear" x1="12990.9" y1="12500.6" x2="13799.4" y2="12500.6" gradientUnits="userSpaceOnUse">
<stop stop-color="#808080" stop-opacity="0.25"/>
<stop offset="0.54" stop-color="#808080" stop-opacity="0.12"/>
<stop offset="1" stop-color="#808080" stop-opacity="0.1"/>
</linearGradient>
<linearGradient id="paint25_linear" x1="16514.4" y1="5749.56" x2="17131.4" y2="5749.56" gradientUnits="userSpaceOnUse">
<stop stop-color="#808080" stop-opacity="0.25"/>
<stop offset="0.54" stop-color="#808080" stop-opacity="0.12"/>
<stop offset="1" stop-color="#808080" stop-opacity="0.1"/>
</linearGradient>
<linearGradient id="paint26_linear" x1="16514.4" y1="5745.88" x2="17131.4" y2="5745.88" gradientUnits="userSpaceOnUse">
<stop stop-color="#808080" stop-opacity="0.25"/>
<stop offset="0.54" stop-color="#808080" stop-opacity="0.12"/>
<stop offset="1" stop-color="#808080" stop-opacity="0.1"/>
</linearGradient>
<linearGradient id="paint27_linear" x1="1536.14" y1="2318.14" x2="1542.27" y2="2318.14" gradientUnits="userSpaceOnUse">
<stop stop-color="#808080" stop-opacity="0.25"/>
<stop offset="0.54" stop-color="#808080" stop-opacity="0.12"/>
<stop offset="1" stop-color="#808080" stop-opacity="0.1"/>
</linearGradient>
<linearGradient id="paint28_linear" x1="1444.53" y1="2318.14" x2="1450.64" y2="2318.14" gradientUnits="userSpaceOnUse">
<stop stop-color="#808080" stop-opacity="0.25"/>
<stop offset="0.54" stop-color="#808080" stop-opacity="0.12"/>
<stop offset="1" stop-color="#808080" stop-opacity="0.1"/>
</linearGradient>
<linearGradient id="paint29_linear" x1="3739.62" y1="3106.55" x2="3785.84" y2="3106.55" gradientUnits="userSpaceOnUse">
<stop stop-color="#808080" stop-opacity="0.25"/>
<stop offset="0.54" stop-color="#808080" stop-opacity="0.12"/>
<stop offset="1" stop-color="#808080" stop-opacity="0.1"/>
</linearGradient>
<linearGradient id="paint30_linear" x1="18471.3" y1="6414.02" x2="19253.2" y2="6414.02" gradientUnits="userSpaceOnUse">
<stop stop-color="#808080" stop-opacity="0.25"/>
<stop offset="0.54" stop-color="#808080" stop-opacity="0.12"/>
<stop offset="1" stop-color="#808080" stop-opacity="0.1"/>
</linearGradient>
<linearGradient id="paint31_linear" x1="21577" y1="23133.1" x2="22581.8" y2="23133.1" gradientUnits="userSpaceOnUse">
<stop stop-color="#808080" stop-opacity="0.25"/>
<stop offset="0.54" stop-color="#808080" stop-opacity="0.12"/>
<stop offset="1" stop-color="#808080" stop-opacity="0.1"/>
</linearGradient>
<linearGradient id="paint32_linear" x1="3163.41" y1="3106.55" x2="3209.63" y2="3106.55" gradientUnits="userSpaceOnUse">
<stop stop-color="#808080" stop-opacity="0.25"/>
<stop offset="0.54" stop-color="#808080" stop-opacity="0.12"/>
<stop offset="1" stop-color="#808080" stop-opacity="0.1"/>
</linearGradient>
<linearGradient id="paint33_linear" x1="20037.4" y1="23129.2" x2="21040.9" y2="23129.2" gradientUnits="userSpaceOnUse">
<stop stop-color="#808080" stop-opacity="0.25"/>
<stop offset="0.54" stop-color="#808080" stop-opacity="0.12"/>
<stop offset="1" stop-color="#808080" stop-opacity="0.1"/>
</linearGradient>
<linearGradient id="paint34_linear" x1="6157.39" y1="3498.81" x2="6237.73" y2="3498.81" gradientUnits="userSpaceOnUse">
<stop stop-color="#808080" stop-opacity="0.25"/>
<stop offset="0.54" stop-color="#808080" stop-opacity="0.12"/>
<stop offset="1" stop-color="#808080" stop-opacity="0.1"/>
</linearGradient>
<linearGradient id="paint35_linear" x1="6345.52" y1="3498.81" x2="6426.01" y2="3498.81" gradientUnits="userSpaceOnUse">
<stop stop-color="#808080" stop-opacity="0.25"/>
<stop offset="0.54" stop-color="#808080" stop-opacity="0.12"/>
<stop offset="1" stop-color="#808080" stop-opacity="0.1"/>
</linearGradient>
<clipPath id="clip0">
<rect width="418" height="440" fill="white"/>
</clipPath>
</defs>
</svg>
