<svg width="653" height="451" viewBox="0 0 653 451" fill="none" xmlns="http://www.w3.org/2000/svg">
<g filter="url(#filter0_d)">
<path d="M86.2456 103.791H84.5771V193.223H86.2456V103.791Z" fill="#D9D6FF"/>
<path d="M86.2456 219.845H84.5771V298.537H86.2456V219.845Z" fill="#D9D6FF"/>
<path d="M211.378 311.074H82.0747V312.746H211.378V311.074Z" fill="#D9D6FF"/>
<path d="M28.6845 333.641H27.0161V404.686H28.6845V333.641Z" fill="#D9D6FF"/>
<path d="M238.073 417.223H42.0322V418.894H238.073V417.223Z" fill="#D9D6FF"/>
<path d="M401.58 46.9552H399.911V131.373H401.58V46.9552Z" fill="#D9D6FF"/>
<path d="M387.398 144.745H264.74V146.417H387.398V144.745Z" fill="#D9D6FF"/>
<path d="M252.255 158.119H250.586V270.955H252.255V158.119Z" fill="#D9D6FF"/>
<path d="M85.4112 220.805C82.6063 220.805 79.8644 219.972 77.5323 218.41C75.2001 216.849 73.3824 214.63 72.309 212.034C71.2356 209.437 70.9548 206.58 71.502 203.824C72.0492 201.068 73.3999 198.536 75.3832 196.549C77.3666 194.562 79.8935 193.208 82.6445 192.66C85.3955 192.112 88.2469 192.393 90.8383 193.469C93.4297 194.544 95.6446 196.365 97.2029 198.702C98.7612 201.039 99.5929 203.786 99.5929 206.596C99.5887 210.363 98.0932 213.975 95.4346 216.639C92.7759 219.302 89.1711 220.801 85.4112 220.805ZM85.4112 194.059C82.9363 194.059 80.517 194.794 78.4592 196.172C76.4014 197.549 74.7975 199.507 73.8504 201.798C72.9033 204.089 72.6556 206.61 73.1384 209.042C73.6212 211.474 74.813 213.708 76.563 215.461C78.313 217.215 80.5427 218.409 82.97 218.893C85.3973 219.376 87.9133 219.128 90.1998 218.179C92.4863 217.23 94.4406 215.623 95.8156 213.561C97.1906 211.5 97.9245 209.076 97.9245 206.596C97.9208 203.272 96.6012 200.085 94.2554 197.735C91.9095 195.385 88.7288 194.063 85.4112 194.059Z" fill="#D9D6FF"/>
<path d="M28.6847 432.267C25.8798 432.267 23.1379 431.434 20.8057 429.873C18.4735 428.312 16.6558 426.092 15.5825 423.496C14.5091 420.9 14.2282 418.043 14.7754 415.287C15.3226 412.53 16.6733 409.998 18.6567 408.011C20.64 406.024 23.1669 404.671 25.9179 404.123C28.6689 403.574 31.5204 403.856 34.1118 404.931C36.7031 406.007 38.918 407.828 40.4763 410.164C42.0346 412.501 42.8664 415.248 42.8664 418.059C42.8622 421.826 41.3667 425.437 38.708 428.101C36.0493 430.765 32.4446 432.263 28.6847 432.267ZM28.6847 405.521C26.2098 405.521 23.7904 406.257 21.7327 407.634C19.6749 409.012 18.071 410.97 17.1239 413.261C16.1768 415.552 15.929 418.072 16.4118 420.504C16.8946 422.936 18.0864 425.17 19.8364 426.924C21.5864 428.677 23.8161 429.871 26.2434 430.355C28.6708 430.839 31.1868 430.59 33.4733 429.641C35.7598 428.693 37.7141 427.086 39.0891 425.024C40.464 422.962 41.1979 420.538 41.1979 418.059C41.1942 414.735 39.8747 411.548 37.5288 409.197C35.1829 406.847 32.0022 405.525 28.6847 405.521Z" fill="#D9D6FF"/>
<path d="M86.2454 325.283C93.617 325.283 99.5929 319.295 99.5929 311.91C99.5929 304.524 93.617 298.536 86.2454 298.536C78.8738 298.536 72.8979 304.524 72.8979 311.91C72.8979 319.295 78.8738 325.283 86.2454 325.283Z" fill="#FFED79"/>
<path d="M569.257 205.76H430.777V207.432H569.257V205.76Z" fill="#D9D6FF"/>
<path d="M418.264 219.845H416.596V298.537H418.264V219.845Z" fill="#D9D6FF"/>
<path d="M403.248 311.074H292.297V312.746H403.248V311.074Z" fill="#D9D6FF"/>
<path d="M602.626 318.596H487.504V320.268H602.626V318.596Z" fill="#D9D6FF"/>
<path d="M475.825 333.641H474.157V404.686H475.825V333.641Z" fill="#D9D6FF"/>
<path d="M460.809 417.223H264.768V418.894H460.809V417.223Z" fill="#D9D6FF"/>
<path d="M252.255 352.865H250.586V404.686H252.255V352.865Z" fill="#D9D6FF"/>
<path d="M417.43 219.97C424.802 219.97 430.777 213.982 430.777 206.596C430.777 199.211 424.802 193.223 417.43 193.223C410.058 193.223 404.083 199.211 404.083 206.596C404.083 213.982 410.058 219.97 417.43 219.97Z" fill="#FFED79"/>
<path d="M400.746 158.955C397.941 158.955 395.199 158.121 392.867 156.56C390.535 154.999 388.717 152.78 387.643 150.183C386.57 147.587 386.289 144.73 386.836 141.974C387.384 139.218 388.734 136.686 390.718 134.699C392.701 132.712 395.228 131.358 397.979 130.81C400.73 130.262 403.581 130.543 406.173 131.619C408.764 132.694 410.979 134.515 412.537 136.852C414.096 139.189 414.927 141.936 414.927 144.746C414.923 148.513 413.428 152.125 410.769 154.788C408.11 157.452 404.506 158.951 400.746 158.955ZM400.746 132.209C398.271 132.209 395.851 132.944 393.794 134.322C391.736 135.699 390.132 137.657 389.185 139.948C388.238 142.239 387.99 144.76 388.473 147.192C388.956 149.624 390.147 151.858 391.897 153.611C393.647 155.364 395.877 156.559 398.304 157.042C400.732 157.526 403.248 157.278 405.534 156.329C407.821 155.38 409.775 153.773 411.15 151.711C412.525 149.65 413.259 147.226 413.259 144.746C413.255 141.422 411.936 138.235 409.59 135.885C407.244 133.534 404.063 132.212 400.746 132.209Z" fill="#D9D6FF"/>
<path d="M251.42 158.955C248.616 158.955 245.874 158.121 243.542 156.56C241.209 154.999 239.392 152.78 238.318 150.183C237.245 147.587 236.964 144.73 237.511 141.974C238.058 139.218 239.409 136.686 241.392 134.699C243.376 132.712 245.903 131.358 248.654 130.81C251.405 130.262 254.256 130.543 256.848 131.619C259.439 132.694 261.654 134.515 263.212 136.852C264.77 139.189 265.602 141.936 265.602 144.746C265.598 148.513 264.102 152.125 261.444 154.788C258.785 157.452 255.18 158.951 251.42 158.955ZM251.42 132.209C248.946 132.209 246.526 132.944 244.468 134.322C242.411 135.699 240.807 137.657 239.86 139.948C238.913 142.239 238.665 144.76 239.148 147.192C239.63 149.624 240.822 151.858 242.572 153.611C244.322 155.364 246.552 156.559 248.979 157.042C251.407 157.526 253.923 157.278 256.209 156.329C258.496 155.38 260.45 153.773 261.825 151.711C263.2 149.65 263.934 147.226 263.934 144.746C263.93 141.422 262.611 138.235 260.265 135.885C257.919 133.534 254.738 132.212 251.42 132.209Z" fill="#D9D6FF"/>
<path d="M474.157 334.476C471.352 334.476 468.61 333.643 466.278 332.082C463.946 330.52 462.128 328.301 461.055 325.705C459.981 323.108 459.7 320.252 460.248 317.495C460.795 314.739 462.145 312.207 464.129 310.22C466.112 308.233 468.639 306.88 471.39 306.331C474.141 305.783 476.993 306.065 479.584 307.14C482.175 308.215 484.39 310.037 485.948 312.373C487.507 314.71 488.338 317.457 488.338 320.267C488.334 324.034 486.839 327.646 484.18 330.31C481.521 332.974 477.917 334.472 474.157 334.476ZM474.157 307.73C471.682 307.73 469.263 308.465 467.205 309.843C465.147 311.221 463.543 313.179 462.596 315.469C461.649 317.76 461.401 320.281 461.884 322.713C462.367 325.145 463.559 327.379 465.309 329.132C467.059 330.886 469.288 332.08 471.716 332.564C474.143 333.047 476.659 332.799 478.945 331.85C481.232 330.901 483.186 329.294 484.561 327.233C485.936 325.171 486.67 322.747 486.67 320.267C486.666 316.943 485.347 313.757 483.001 311.406C480.655 309.056 477.474 307.734 474.157 307.73Z" fill="#D9D6FF"/>
<path d="M474.156 431.431C481.528 431.431 487.504 425.444 487.504 418.058C487.504 410.673 481.528 404.685 474.156 404.685C466.784 404.685 460.809 410.673 460.809 418.058C460.809 425.444 466.784 431.431 474.156 431.431Z" fill="#FFED79"/>
<path d="M251.42 432.267C248.616 432.267 245.874 431.434 243.542 429.873C241.209 428.312 239.392 426.092 238.318 423.496C237.245 420.9 236.964 418.043 237.511 415.287C238.058 412.53 239.409 409.998 241.392 408.011C243.376 406.024 245.903 404.671 248.654 404.123C251.405 403.574 254.256 403.856 256.848 404.931C259.439 406.007 261.654 407.828 263.212 410.164C264.77 412.501 265.602 415.248 265.602 418.059C265.598 421.826 264.102 425.437 261.444 428.101C258.785 430.765 255.18 432.263 251.42 432.267ZM251.42 405.521C248.946 405.521 246.526 406.257 244.468 407.634C242.411 409.012 240.807 410.97 239.86 413.261C238.913 415.552 238.665 418.072 239.148 420.504C239.63 422.936 240.822 425.17 242.572 426.924C244.322 428.677 246.552 429.871 248.979 430.355C251.407 430.839 253.923 430.59 256.209 429.641C258.496 428.693 260.45 427.086 261.825 425.024C263.2 422.962 263.934 420.538 263.934 418.059C263.93 414.735 262.611 411.548 260.265 409.197C257.919 406.847 254.738 405.525 251.42 405.521Z" fill="#D9D6FF"/>
<path d="M416.596 326.118C413.791 326.118 411.049 325.285 408.717 323.724C406.385 322.162 404.567 319.943 403.494 317.347C402.42 314.751 402.139 311.894 402.687 309.137C403.234 306.381 404.584 303.849 406.568 301.862C408.551 299.875 411.078 298.522 413.829 297.973C416.58 297.425 419.431 297.707 422.023 298.782C424.614 299.857 426.829 301.679 428.387 304.015C429.946 306.352 430.777 309.099 430.777 311.909C430.773 315.677 429.278 319.288 426.619 321.952C423.96 324.616 420.356 326.114 416.596 326.118ZM416.596 299.372C414.121 299.372 411.702 300.107 409.644 301.485C407.586 302.863 405.982 304.821 405.035 307.112C404.088 309.402 403.84 311.923 404.323 314.355C404.806 316.787 405.998 319.021 407.748 320.775C409.498 322.528 411.727 323.722 414.155 324.206C416.582 324.689 419.098 324.441 421.384 323.492C423.671 322.543 425.625 320.936 427 318.875C428.375 316.813 429.109 314.389 429.109 311.909C429.105 308.585 427.786 305.399 425.44 303.048C423.094 300.698 419.913 299.376 416.596 299.372Z" fill="#D9D6FF"/>
<path d="M28.6844 291.85C25.3845 291.85 22.1588 292.831 19.415 294.668C16.6713 296.504 14.5328 299.115 13.27 302.17C12.0072 305.224 11.6768 308.585 12.3206 311.828C12.9644 315.071 14.5534 318.049 16.8867 320.387C19.2201 322.725 22.193 324.317 25.4294 324.962C28.6659 325.607 32.0205 325.276 35.0692 324.011C38.1178 322.745 40.7236 320.603 42.5569 317.854C44.3902 315.105 45.3687 311.873 45.3687 308.567C45.3558 304.137 43.5938 299.893 40.4677 296.761C37.3416 293.629 33.1053 291.863 28.6844 291.85ZM28.6844 296.865C29.6743 296.865 30.642 297.159 31.4652 297.71C32.2883 298.261 32.9298 299.045 33.3086 299.961C33.6875 300.877 33.7866 301.886 33.5935 302.859C33.4003 303.831 32.9236 304.725 32.2236 305.426C31.5236 306.128 30.6318 306.605 29.6608 306.799C28.6899 306.992 27.6835 306.893 26.7689 306.513C25.8543 306.134 25.0726 305.491 24.5226 304.666C23.9726 303.842 23.679 302.872 23.679 301.88C23.6835 300.551 24.2122 299.278 25.15 298.339C26.0877 297.399 27.3582 296.87 28.6844 296.865ZM28.6844 321.008C26.7071 320.999 24.7618 320.506 23.0174 319.574C21.2729 318.641 19.7819 317.296 18.6737 315.655C18.754 312.312 25.3475 310.471 28.6844 310.471C32.0212 310.471 38.6148 312.312 38.695 315.655C37.5855 317.295 36.0942 318.639 34.3501 319.571C32.6059 320.504 30.6613 320.997 28.6844 321.008Z" fill="#D9D6FF"/>
<path d="M86.2454 63.6715C82.9455 63.6715 79.7198 64.6519 76.9761 66.4887C74.2323 68.3255 72.0938 70.9363 70.831 73.9908C69.5682 77.0453 69.2379 80.4064 69.8816 83.6491C70.5254 86.8917 72.1144 89.8703 74.4478 92.2081C76.7811 94.546 79.754 96.1381 82.9904 96.7831C86.2269 97.4281 89.5815 97.097 92.6302 95.8318C95.6789 94.5666 98.2846 92.424 100.118 89.675C101.951 86.926 102.93 83.6941 102.93 80.3879C102.917 75.9584 101.155 71.7141 98.0287 68.5819C94.9026 65.4498 90.6664 63.6845 86.2454 63.6715ZM86.2454 68.6864C87.2353 68.6864 88.2031 68.9805 89.0262 69.5316C89.8493 70.0826 90.4908 70.8659 90.8697 71.7822C91.2485 72.6986 91.3476 73.7069 91.1545 74.6797C90.9614 75.6525 90.4847 76.5461 89.7847 77.2474C89.0847 77.9488 88.1928 78.4264 87.2219 78.6199C86.2509 78.8134 85.2445 78.7141 84.3299 78.3345C83.4153 77.9549 82.6336 77.3122 82.0836 76.4875C81.5336 75.6628 81.2401 74.6932 81.2401 73.7013C81.2445 72.3727 81.7733 71.0997 82.711 70.1602C83.6487 69.2206 84.9193 68.6909 86.2454 68.6864ZM86.2454 92.8287C84.2681 92.8197 82.3229 92.3275 80.5784 91.3947C78.834 90.462 77.343 89.117 76.2348 87.4763C76.315 84.133 82.9085 82.2926 86.2454 82.2926C89.5823 82.2926 96.1758 84.133 96.256 87.4763C95.1465 89.1157 93.6553 90.4598 91.9111 91.3924C90.1669 92.325 88.2223 92.818 86.2454 92.8287Z" fill="#D9D6FF"/>
<path d="M400.745 6C397.446 6 394.22 6.9804 391.476 8.81722C388.732 10.654 386.594 13.2648 385.331 16.3193C384.068 19.3738 383.738 22.7349 384.382 25.9776C385.025 29.2202 386.614 32.1988 388.948 34.5366C391.281 36.8745 394.254 38.4665 397.49 39.1115C400.727 39.7566 404.082 39.4255 407.13 38.1603C410.179 36.8951 412.785 34.7525 414.618 32.0035C416.451 29.2545 417.43 26.0226 417.43 22.7164C417.417 18.2869 415.655 14.0426 412.529 10.9104C409.403 7.77831 405.166 6.01297 400.745 6ZM400.745 11.0149C401.735 11.0149 402.703 11.309 403.526 11.8601C404.349 12.4111 404.991 13.1943 405.37 14.1107C405.749 15.0271 405.848 16.0354 405.655 17.0082C405.461 17.981 404.985 18.8746 404.285 19.5759C403.585 20.2773 402.693 20.7549 401.722 20.9484C400.751 21.1419 399.745 21.0426 398.83 20.663C397.915 20.2834 397.134 19.6407 396.584 18.816C396.034 17.9913 395.74 17.0217 395.74 16.0298C395.745 14.7012 396.273 13.4282 397.211 12.4886C398.149 11.5491 399.419 11.0193 400.745 11.0149ZM400.745 35.1572C398.768 35.1482 396.823 34.656 395.078 33.7232C393.334 32.7905 391.843 31.4455 390.735 29.8048C390.815 26.4615 397.409 24.6211 400.745 24.6211C404.082 24.6211 410.676 26.4615 410.756 29.8048C409.647 31.4442 408.155 32.7883 406.411 33.7209C404.667 34.6535 402.722 35.1464 400.745 35.1572Z" fill="#D9D6FF"/>
<path d="M592.616 189.044C589.316 189.044 586.09 190.025 583.346 191.862C580.602 193.698 578.464 196.309 577.201 199.364C575.938 202.418 575.608 205.779 576.252 209.022C576.896 212.265 578.485 215.243 580.818 217.581C583.151 219.919 586.124 221.511 589.361 222.156C592.597 222.801 595.952 222.47 599 221.205C602.049 219.94 604.655 217.797 606.488 215.048C608.321 212.299 609.3 209.067 609.3 205.761C609.287 201.331 607.525 197.087 604.399 193.955C601.273 190.823 597.037 189.057 592.616 189.044ZM592.616 194.059C593.605 194.059 594.573 194.353 595.396 194.904C596.219 195.456 596.861 196.239 597.24 197.155C597.619 198.071 597.718 199.08 597.525 200.053C597.331 201.025 596.855 201.919 596.155 202.62C595.455 203.322 594.563 203.799 593.592 203.993C592.621 204.186 591.615 204.087 590.7 203.707C589.785 203.328 589.004 202.685 588.454 201.86C587.904 201.036 587.61 200.066 587.61 199.074C587.615 197.746 588.143 196.473 589.081 195.533C590.019 194.594 591.289 194.064 592.616 194.059ZM592.616 218.202C590.638 218.193 588.693 217.7 586.949 216.768C585.204 215.835 583.713 214.49 582.605 212.849C582.685 209.506 589.279 207.666 592.616 207.666C595.952 207.666 602.546 209.506 602.626 212.849C601.517 214.489 600.025 215.833 598.281 216.765C596.537 217.698 594.592 218.191 592.616 218.202Z" fill="#D9D6FF"/>
<path d="M624.316 301.88C621.016 301.88 617.79 302.86 615.046 304.697C612.303 306.534 610.164 309.144 608.901 312.199C607.639 315.253 607.308 318.615 607.952 321.857C608.596 325.1 610.185 328.078 612.518 330.416C614.851 332.754 617.824 334.346 621.061 334.991C624.297 335.636 627.652 335.305 630.701 334.04C633.749 332.775 636.355 330.632 638.188 327.883C640.022 325.134 641 321.902 641 318.596C640.987 314.167 639.225 309.922 636.099 306.79C632.973 303.658 628.737 301.893 624.316 301.88ZM624.316 306.895C625.306 306.895 626.273 307.189 627.096 307.74C627.92 308.291 628.561 309.074 628.94 309.99C629.319 310.907 629.418 311.915 629.225 312.888C629.032 313.861 628.555 314.754 627.855 315.456C627.155 316.157 626.263 316.635 625.292 316.828C624.321 317.022 623.315 316.922 622.4 316.543C621.486 316.163 620.704 315.52 620.154 314.696C619.604 313.871 619.31 312.901 619.31 311.909C619.315 310.581 619.844 309.308 620.781 308.368C621.719 307.429 622.99 306.899 624.316 306.895ZM624.316 331.037C622.338 331.028 620.393 330.536 618.649 329.603C616.904 328.67 615.413 327.325 614.305 325.684C614.385 322.341 620.979 320.501 624.316 320.501C627.653 320.501 634.246 322.341 634.326 325.684C633.217 327.324 631.726 328.668 629.981 329.601C628.237 330.533 626.293 331.026 624.316 331.037Z" fill="#D9D6FF"/>
<circle cx="252" cy="312" r="33" fill="#F2D832"/>
<g clip-path="url(#clip0)">
<path d="M250.918 320.954L239.867 314.432L250.911 330.001L261.968 314.432L250.911 320.954H250.918ZM251.082 294L240.036 312.334L251.082 318.867L262.133 312.341L251.082 294Z" fill="#5A577B"/>
</g>
</g>
<defs>
<filter id="filter0_d" x="0" y="0" width="653" height="450.267" filterUnits="userSpaceOnUse" color-interpolation-filters="sRGB">
<feFlood flood-opacity="0" result="BackgroundImageFix"/>
<feColorMatrix in="SourceAlpha" type="matrix" values="0 0 0 0 0 0 0 0 0 0 0 0 0 0 0 0 0 0 127 0" result="hardAlpha"/>
<feOffset dy="6"/>
<feGaussianBlur stdDeviation="6"/>
<feColorMatrix type="matrix" values="0 0 0 0 0 0 0 0 0 0 0 0 0 0 0 0 0 0 0.25 0"/>
<feBlend mode="normal" in2="BackgroundImageFix" result="effect1_dropShadow"/>
<feBlend mode="normal" in="SourceGraphic" in2="effect1_dropShadow" result="shape"/>
</filter>
<clipPath id="clip0">
<rect width="36" height="36" fill="white" transform="translate(233 294)"/>
</clipPath>
</defs>
</svg>
